<mxfile host="app.diagrams.net" modified="2023-06-21T19:51:37.661Z" agent="Mozilla/5.0 (Windows NT 10.0; Win64; x64) AppleWebKit/537.36 (KHTML, like Gecko) Chrome/113.0.0.0 Safari/537.36 OPR/99.0.0.0 (Edition Yx GX)" version="21.5.0" etag="LwXMmJYcTqRZYzdYK_0u" type="github">
  <diagram name="Страница 1" id="63KkTra8b_rzIgZcjm6D">
    <mxGraphModel>
      <root>
        <mxCell id="0" />
        <mxCell id="1" parent="0" />
      </root>
    </mxGraphModel>
  </diagram>
</mxfile>
